REM DIRINDEX 1\2,1\3,1\4
REM DIRNAME cjc151,folder01,folder02,folder03
TITLE ""
FILE "163 163_TOEFL_3900.mp3" MP3
  TRACK 01 AUDIO
    TITLE "2:cjc151_7102"
    INDEX 01 00:00:00
  TRACK 02 AUDIO
    TITLE "0:"
    INDEX 01 00:01:24
  TRACK 03 AUDIO
    TITLE "3:cjc151_7103"
    INDEX 01 00:03:10
  TRACK 04 AUDIO
    TITLE "0:"
    INDEX 01 00:06:26
  TRACK 05 AUDIO
    TITLE "2:cjc151_7104"
    INDEX 01 00:08:15
  TRACK 06 AUDIO
    TITLE "0:"
    INDEX 01 00:09:12
  TRACK 07 AUDIO
    TITLE "3:cjc151_7105"
    INDEX 01 00:11:09
  TRACK 08 AUDIO
    TITLE "0:"
    INDEX 01 00:15:52
  TRACK 09 AUDIO
    TITLE "2:cjc151_7106"
    INDEX 01 00:17:37
  TRACK 10 AUDIO
    TITLE "0:"
    INDEX 01 00:19:01
  TRACK 11 AUDIO
    TITLE "3:cjc151_7107"
    INDEX 01 00:20:51
  TRACK 12 AUDIO
    TITLE "0:"
    INDEX 01 00:24:31
  TRACK 13 AUDIO
    TITLE "2:cjc151_7108"
    INDEX 01 00:26:32
  TRACK 14 AUDIO
    TITLE "0:"
    INDEX 01 00:27:38
  TRACK 15 AUDIO
    TITLE "3:cjc151_7109"
    INDEX 01 00:29:17
  TRACK 16 AUDIO
    TITLE "0:"
    INDEX 01 00:34:22
  TRACK 17 AUDIO
    TITLE "2:cjc151_7110"
    INDEX 01 00:35:74
  TRACK 18 AUDIO
    TITLE "0:"
    INDEX 01 00:37:50
  TRACK 19 AUDIO
    TITLE "3:cjc151_7111"
    INDEX 01 00:39:27
  TRACK 20 AUDIO
    TITLE "0:"
    INDEX 01 00:43:44
  TRACK 21 AUDIO
    TITLE "2:cjc151_7112"
    INDEX 01 00:45:22
  TRACK 22 AUDIO
    TITLE "0:"
    INDEX 01 00:46:37
  TRACK 23 AUDIO
    TITLE "3:cjc151_7113"
    INDEX 01 00:48:16
  TRACK 24 AUDIO
    TITLE "0:"
    INDEX 01 00:52:28
  TRACK 25 AUDIO
    TITLE "2:cjc151_7114"
    INDEX 01 00:54:05
  TRACK 26 AUDIO
    TITLE "0:"
    INDEX 01 00:55:38
  TRACK 27 AUDIO
    TITLE "3:cjc151_7115"
    INDEX 01 00:57:17
  TRACK 28 AUDIO
    TITLE "0:"
    INDEX 01 01:01:64
  TRACK 29 AUDIO
    TITLE "2:cjc151_7116"
    INDEX 01 01:03:41
  TRACK 30 AUDIO
    TITLE "0:"
    INDEX 01 01:04:47
  TRACK 31 AUDIO
    TITLE "3:cjc151_7117"
    INDEX 01 01:06:24
  TRACK 32 AUDIO
    TITLE "0:"
    INDEX 01 01:09:36
  TRACK 33 AUDIO
    TITLE "2:cjc151_7118"
    INDEX 01 01:11:23
  TRACK 34 AUDIO
    TITLE "0:"
    INDEX 01 01:12:24
  TRACK 35 AUDIO
    TITLE "3:cjc151_7119"
    INDEX 01 01:14:02
  TRACK 36 AUDIO
    TITLE "0:"
    INDEX 01 01:17:53
  TRACK 37 AUDIO
    TITLE "2:cjc151_7120"
    INDEX 01 01:19:34
  TRACK 38 AUDIO
    TITLE "0:"
    INDEX 01 01:21:16
  TRACK 39 AUDIO
    TITLE "3:cjc151_7121"
    INDEX 01 01:22:70
  TRACK 40 AUDIO
    TITLE "0:"
    INDEX 01 01:27:57
  TRACK 41 AUDIO
    TITLE "2:cjc151_7122"
    INDEX 01 01:29:37
  TRACK 42 AUDIO
    TITLE "0:"
    INDEX 01 01:32:13
  TRACK 43 AUDIO
    TITLE "3:cjc151_7123"
    INDEX 01 01:34:01
  TRACK 44 AUDIO
    TITLE "0:"
    INDEX 01 01:37:73
  TRACK 45 AUDIO
    TITLE "2:cjc151_7124"
    INDEX 01 01:39:53
  TRACK 46 AUDIO
    TITLE "0:"
    INDEX 01 01:42:20
  TRACK 47 AUDIO
    TITLE "3:cjc151_7125"
    INDEX 01 01:43:74
  TRACK 48 AUDIO
    TITLE "0:"
    INDEX 01 01:48:11
  TRACK 49 AUDIO
    TITLE "2:cjc151_7126"
    INDEX 01 01:49:59
  TRACK 50 AUDIO
    TITLE "0:"
    INDEX 01 01:51:05
  TRACK 51 AUDIO
    TITLE "3:cjc151_7127"
    INDEX 01 01:52:59
  TRACK 52 AUDIO
    TITLE "0:"
    INDEX 01 01:57:41
  TRACK 53 AUDIO
    TITLE "2:cjc151_7128"
    INDEX 01 01:59:18
  TRACK 54 AUDIO
    TITLE "0:"
    INDEX 01 02:01:31
  TRACK 55 AUDIO
    TITLE "3:cjc151_7129"
    INDEX 01 02:03:16
  TRACK 56 AUDIO
    TITLE "0:"
    INDEX 01 02:06:71
  TRACK 57 AUDIO
    TITLE "2:cjc151_7130"
    INDEX 01 02:08:48
  TRACK 58 AUDIO
    TITLE "0:"
    INDEX 01 02:09:62
  TRACK 59 AUDIO
    TITLE "3:cjc151_7131"
    INDEX 01 02:11:41
  TRACK 60 AUDIO
    TITLE "0:"
    INDEX 01 02:15:41
  TRACK 61 AUDIO
    TITLE "2:cjc151_7132"
    INDEX 01 02:17:22
  TRACK 62 AUDIO
    TITLE "0:"
    INDEX 01 02:18:57
  TRACK 63 AUDIO
    TITLE "3:cjc151_7133"
    INDEX 01 02:20:36
  TRACK 64 AUDIO
    TITLE "0:"
    INDEX 01 02:25:21
  TRACK 65 AUDIO
    TITLE "2:cjc151_7134"
    INDEX 01 02:27:22
  TRACK 66 AUDIO
    TITLE "0:"
    INDEX 01 02:28:39
  TRACK 67 AUDIO
    TITLE "3:cjc151_7135"
    INDEX 01 02:30:13
  TRACK 68 AUDIO
    TITLE "0:"
    INDEX 01 02:33:58
  TRACK 69 AUDIO
    TITLE "2:cjc151_7136"
    INDEX 01 02:35:38
  TRACK 70 AUDIO
    TITLE "0:"
    INDEX 01 02:36:57
  TRACK 71 AUDIO
    TITLE "3:cjc151_7137"
    INDEX 01 02:38:34
  TRACK 72 AUDIO
    TITLE "0:"
    INDEX 01 02:42:47
  TRACK 73 AUDIO
    TITLE "2:cjc151_7138"
    INDEX 01 02:44:23
  TRACK 74 AUDIO
    TITLE "0:"
    INDEX 01 02:45:59
  TRACK 75 AUDIO
    TITLE "3:cjc151_7139"
    INDEX 01 02:47:29
  TRACK 76 AUDIO
    TITLE "0:"
    INDEX 01 02:51:46
  TRACK 77 AUDIO
    TITLE "2:cjc151_7140"
    INDEX 01 02:53:26
  TRACK 78 AUDIO
    TITLE "0:"
    INDEX 01 02:54:29
  TRACK 79 AUDIO
    TITLE "3:cjc151_7141"
    INDEX 01 02:56:08
  TRACK 80 AUDIO
    TITLE "0:"
    INDEX 01 02:59:50
  TRACK 81 AUDIO
    TITLE "2:cjc151_7142"
    INDEX 01 03:01:29
  TRACK 82 AUDIO
    TITLE "0:"
    INDEX 01 03:02:68
  TRACK 83 AUDIO
    TITLE "3:cjc151_7143"
    INDEX 01 03:04:65
  TRACK 84 AUDIO
    TITLE "0:"
    INDEX 01 03:07:71
  TRACK 85 AUDIO
    TITLE "2:cjc151_7144"
    INDEX 01 03:09:56
  TRACK 86 AUDIO
    TITLE "0:"
    INDEX 01 03:10:63
  TRACK 87 AUDIO
    TITLE "3:cjc151_7145"
    INDEX 01 03:12:52
  TRACK 88 AUDIO
    TITLE "0:"
    INDEX 01 03:16:62
